<svg version="1.1" viewBox="0.0 0.0 180.0 180.0" fill="none" stroke="none" stroke-linecap="square" stroke-miterlimit="10" xmlns:xlink="http://www.w3.org/1999/xlink" xmlns="http://www.w3.org/2000/svg"><clipPath id="p.0"><path d="m0 0l180.0 0l0 180.0l-180.0 0l0 -180.0z" clip-rule="nonzero"/></clipPath><g clip-path="url(#p.0)"><path fill="#000000" fill-opacity="0.0" d="m0 0l180.0 0l0 180.0l-180.0 0z" fill-rule="evenodd"/><path fill="#212529" d="m0 0l180.0 0l0 180.0l-180.0 0z" fill-rule="evenodd"/><path fill="#dee2e6" d="m35.65435 115.444374q-6.171875 0 -10.78125 -2.453125q-4.609375 -2.46875 -7.140625 -6.765625q-2.53125 -4.296875 -2.53125 -9.78125q0 -5.546875 2.453125 -9.796875q2.46875 -4.265625 6.796875 -6.6875q4.328125 -2.4375 9.875 -2.4375q5.40625 0 9.640625 2.359375q4.234375 2.359375 6.65625 6.65625q2.421875 4.296875 2.421875 10.125q0 0.546875 -0.03125 1.25q-0.03125 0.6875 -0.109375 1.3125l-30.84375 0l0 -5.75l26.265625 0l-3.390625 1.796875q0.078125 -3.1875 -1.3125 -5.609375q-1.390625 -2.4375 -3.78125 -3.8125q-2.390625 -1.390625 -5.515625 -1.390625q-3.1875 0 -5.578125 1.390625q-2.390625 1.375 -3.75 3.84375q-1.34375 2.453125 -1.34375 5.78125l0 1.390625q0 3.328125 1.515625 5.890625q1.53125 2.5625 4.296875 3.953125q2.78125 1.390625 6.390625 1.390625q3.109375 0 5.609375 -0.96875q2.5 -0.96875 4.4375 -3.0625l4.640625 5.34375q-2.484375 2.90625 -6.265625 4.46875q-3.78125 1.5625 -8.625 1.5625zm29.107468 -0.484375l0 -45.0625l3.953125 4.09375l-14.21875 0l0 -7.5625l19.28125 0l0 48.53125l-9.015625 0zm38.898376 0.6875q-5.75 0 -10.375 -2.90625q-4.609375 -2.90625 -7.25 -8.484375q-2.625 -5.59375 -2.625 -13.5625q0 -7.96875 2.625 -13.546875q2.640625 -5.59375 7.25 -8.5q4.625 -2.90625 10.375 -2.90625q5.828125 0 10.390625 2.90625q4.578125 2.90625 7.25 8.5q2.671875 5.578125 2.671875 13.546875q0 7.96875 -2.671875 13.5625q-2.671875 5.578125 -7.25 8.484375q-4.5625 2.90625 -10.390625 2.90625zm0 -7.828125q3.390625 0 5.890625 -1.828125q2.5 -1.84375 3.921875 -5.65625q1.421875 -3.8125 1.421875 -9.640625q0 -5.890625 -1.421875 -9.671875q-1.421875 -3.78125 -3.921875 -5.609375q-2.5 -1.84375 -5.890625 -1.84375q-3.265625 0 -5.796875 1.84375q-2.53125 1.828125 -3.953125 5.609375q-1.421875 3.78125 -1.421875 9.671875q0 5.828125 1.421875 9.640625q1.421875 3.8125 3.953125 5.65625q2.53125 1.828125 5.796875 1.828125zm39.238823 7.140625l-15.874992 -37.015625l9.015617 0l13.65625 32.640625l-4.4375 0l14.140625 -32.640625l8.3125 0l-15.875 37.015625l-8.9375 0z" fill-rule="nonzero"/></g></svg>