<svg xmlns="http://www.w3.org/2000/svg" xmlns:xlink="http://www.w3.org/1999/xlink" version="1.1" class="marks" width="480" height="320" viewBox="0 0 480 320"><g fill="none" stroke-miterlimit="10" transform="translate(48,7)"><g class="mark-group role-frame root" role="graphics-object" aria-roledescription="group mark container"><g transform="translate(0,0)"><path class="background" aria-hidden="true" d="M0,0h432v252h-432Z" stroke="false"/><g><g class="mark-group role-axis" role="graphics-symbol" aria-roledescription="axis" aria-label="X-axis titled 'perceived ability quartile' for a discrete scale with 4 values: bottom, 2nd, 3rd, top"><g transform="translate(0.5,252.5)"><path class="background" aria-hidden="true" d="M0,0h0v0h0Z" pointer-events="none"/><g><g class="mark-rule role-axis-tick" pointer-events="none"><line transform="translate(54,0)" x2="0" y2="5" stroke="#7F7F7F" stroke-width="1" opacity="1"/><line transform="translate(162,0)" x2="0" y2="5" stroke="#7F7F7F" stroke-width="1" opacity="1"/><line transform="translate(270,0)" x2="0" y2="5" stroke="#7F7F7F" stroke-width="1" opacity="1"/><line transform="translate(378,0)" x2="0" y2="5" stroke="#7F7F7F" stroke-width="1" opacity="1"/></g><g class="mark-text role-axis-label" pointer-events="none"><text text-anchor="middle" transform="translate(54,18)" font-family="&quot;Source Sans Pro&quot;, sans-serif" font-size="14px" fill="#7F7F7F" opacity="1">bottom</text><text text-anchor="middle" transform="translate(162,18)" font-family="&quot;Source Sans Pro&quot;, sans-serif" font-size="14px" fill="#7F7F7F" opacity="1">2nd</text><text text-anchor="middle" transform="translate(270,18)" font-family="&quot;Source Sans Pro&quot;, sans-serif" font-size="14px" fill="#7F7F7F" opacity="1">3rd</text><text text-anchor="middle" transform="translate(378,18)" font-family="&quot;Source Sans Pro&quot;, sans-serif" font-size="14px" fill="#7F7F7F" opacity="1">top</text></g><g class="mark-rule role-axis-domain" pointer-events="none"><line transform="translate(0,0)" x2="432" y2="0" stroke="#888" stroke-width="1" opacity="1"/></g><g class="mark-text role-axis-title" pointer-events="none"><text text-anchor="middle" transform="translate(216,38)" font-family="&quot;Source Sans Pro&quot;, sans-serif" font-size="16px" font-weight="normal" fill="#7F7F7F" opacity="1">perceived ability quartile</text></g></g><path class="foreground" aria-hidden="true" d="" pointer-events="none" display="none"/></g></g><g class="mark-group role-axis" role="graphics-symbol" aria-roledescription="axis" aria-label="Y-axis titled 'average percentile' for a linear scale with values from 0 to 100"><g transform="translate(0.5,0.5)"><path class="background" aria-hidden="true" d="M0,0h0v0h0Z" pointer-events="none"/><g><g class="mark-rule role-axis-tick" pointer-events="none"><line transform="translate(0,252)" x2="-5" y2="0" stroke="#7F7F7F" stroke-width="1" opacity="1"/><line transform="translate(0,202)" x2="-5" y2="0" stroke="#7F7F7F" stroke-width="1" opacity="1"/><line transform="translate(0,151)" x2="-5" y2="0" stroke="#7F7F7F" stroke-width="1" opacity="1"/><line transform="translate(0,101)" x2="-5" y2="0" stroke="#7F7F7F" stroke-width="1" opacity="1"/><line transform="translate(0,50)" x2="-5" y2="0" stroke="#7F7F7F" stroke-width="1" opacity="1"/><line transform="translate(0,0)" x2="-5" y2="0" stroke="#7F7F7F" stroke-width="1" opacity="1"/></g><g class="mark-text role-axis-label" pointer-events="none"><text text-anchor="end" transform="translate(-7,256)" font-family="&quot;Source Sans Pro&quot;, sans-serif" font-size="14px" fill="#7F7F7F" opacity="1">0</text><text text-anchor="end" transform="translate(-7,205.60000000000002)" font-family="&quot;Source Sans Pro&quot;, sans-serif" font-size="14px" fill="#7F7F7F" opacity="1">20</text><text text-anchor="end" transform="translate(-7,155.2)" font-family="&quot;Source Sans Pro&quot;, sans-serif" font-size="14px" fill="#7F7F7F" opacity="1">40</text><text text-anchor="end" transform="translate(-7,104.80000000000001)" font-family="&quot;Source Sans Pro&quot;, sans-serif" font-size="14px" fill="#7F7F7F" opacity="1">60</text><text text-anchor="end" transform="translate(-7,54.39999999999999)" font-family="&quot;Source Sans Pro&quot;, sans-serif" font-size="14px" fill="#7F7F7F" opacity="1">80</text><text text-anchor="end" transform="translate(-7,4)" font-family="&quot;Source Sans Pro&quot;, sans-serif" font-size="14px" fill="#7F7F7F" opacity="1">100</text></g><g class="mark-rule role-axis-domain" pointer-events="none"><line transform="translate(0,252)" x2="0" y2="-252" stroke="#888" stroke-width="1" opacity="1"/></g><g class="mark-text role-axis-title" pointer-events="none"><text text-anchor="middle" transform="translate(-31.9375,126) rotate(-90) translate(0,-3)" font-family="&quot;Source Sans Pro&quot;, sans-serif" font-size="16px" font-weight="normal" fill="#7F7F7F" opacity="1">average percentile</text></g></g><path class="foreground" aria-hidden="true" d="" pointer-events="none" display="none"/></g></g><g class="mark-group role-scope layer_0_pathgroup" role="graphics-object" aria-roledescription="group mark container"><g transform="translate(0,0)"><path class="background" aria-hidden="true" d="M0,0h432v252h-432Z"/><g><g class="mark-line role-mark layer_0_marks" role="graphics-object" aria-roledescription="line mark container"><path aria-label="perceived ability quartile: bottom; average percentile: 32.8; variable: test score" role="graphics-symbol" aria-roledescription="line mark" d="M54,169.344L162,132.955L270,117.432L378,89.309" stroke="#4c78a8" stroke-width="2"/></g></g><path class="foreground" aria-hidden="true" d="" display="none"/></g><g transform="translate(0,0)"><path class="background" aria-hidden="true" d="M0,0h432v252h-432Z"/><g><g class="mark-line role-mark layer_0_marks" role="graphics-object" aria-roledescription="line mark container"><path aria-label="perceived ability quartile: bottom; average percentile: 12; variable: perceived ability" role="graphics-symbol" aria-roledescription="line mark" d="M54,221.76L162,158.76L270,95.76L378,32.76" stroke="#f58518" stroke-width="2"/></g></g><path class="foreground" aria-hidden="true" d="" display="none"/></g></g><g class="mark-symbol role-mark layer_1_marks" role="graphics-object" aria-roledescription="symbol mark container"><path aria-label="perceived ability quartile: 2nd; average percentile: 47.24; variable: test score" role="graphics-symbol" aria-roledescription="point" transform="translate(162,132.9552)" d="M2.739,0A2.739,2.739,0,1,1,-2.739,0A2.739,2.739,0,1,1,2.739,0" fill="#4c78a8" stroke-width="2" opacity="1"/><path aria-label="perceived ability quartile: top; average percentile: 64.56; variable: test score" role="graphics-symbol" aria-roledescription="point" transform="translate(378,89.30879999999999)" d="M2.739,0A2.739,2.739,0,1,1,-2.739,0A2.739,2.739,0,1,1,2.739,0" fill="#4c78a8" stroke-width="2" opacity="1"/><path aria-label="perceived ability quartile: 3rd; average percentile: 53.4; variable: test score" role="graphics-symbol" aria-roledescription="point" transform="translate(270,117.43199999999999)" d="M2.739,0A2.739,2.739,0,1,1,-2.739,0A2.739,2.739,0,1,1,2.739,0" fill="#4c78a8" stroke-width="2" opacity="1"/><path aria-label="perceived ability quartile: bottom; average percentile: 32.8; variable: test score" role="graphics-symbol" aria-roledescription="point" transform="translate(54,169.34400000000002)" d="M2.739,0A2.739,2.739,0,1,1,-2.739,0A2.739,2.739,0,1,1,2.739,0" fill="#4c78a8" stroke-width="2" opacity="1"/><path aria-label="perceived ability quartile: 2nd; average percentile: 37; variable: perceived ability" role="graphics-symbol" aria-roledescription="point" transform="translate(162,158.76)" d="M2.739,0A2.739,2.739,0,1,1,-2.739,0A2.739,2.739,0,1,1,2.739,0" fill="#f58518" stroke-width="2" opacity="1"/><path aria-label="perceived ability quartile: top; average percentile: 87; variable: perceived ability" role="graphics-symbol" aria-roledescription="point" transform="translate(378,32.76)" d="M2.739,0A2.739,2.739,0,1,1,-2.739,0A2.739,2.739,0,1,1,2.739,0" fill="#f58518" stroke-width="2" opacity="1"/><path aria-label="perceived ability quartile: 3rd; average percentile: 62; variable: perceived ability" role="graphics-symbol" aria-roledescription="point" transform="translate(270,95.76)" d="M2.739,0A2.739,2.739,0,1,1,-2.739,0A2.739,2.739,0,1,1,2.739,0" fill="#f58518" stroke-width="2" opacity="1"/><path aria-label="perceived ability quartile: bottom; average percentile: 12; variable: perceived ability" role="graphics-symbol" aria-roledescription="point" transform="translate(54,221.76)" d="M2.739,0A2.739,2.739,0,1,1,-2.739,0A2.739,2.739,0,1,1,2.739,0" fill="#f58518" stroke-width="2" opacity="1"/></g><g class="mark-group role-legend" role="graphics-symbol" aria-roledescription="legend" aria-label="Symbol legend for fill color and stroke color with 2 values: test score, perceived ability"><g transform="translate(299,204)"><path class="background" aria-hidden="true" d="M0,0h115v30h-115Z" pointer-events="none"/><g><g class="mark-group role-legend-entry"><g transform="translate(0,0)"><path class="background" aria-hidden="true" d="M0,0h0v0h0Z" pointer-events="none"/><g><g class="mark-group role-scope" role="graphics-object" aria-roledescription="group mark container"><g transform="translate(0,0)"><path class="background" aria-hidden="true" d="M0,0h114.875v14h-114.875Z" pointer-events="none" opacity="1"/><g><g class="mark-symbol role-legend-symbol" pointer-events="none"><path transform="translate(7,7)" d="M5,0A5,5,0,1,1,-5,0A5,5,0,1,1,5,0" fill="#4c78a8" stroke="#4c78a8" stroke-width="1.5" opacity="1"/></g><g class="mark-text role-legend-label" pointer-events="none"><text text-anchor="start" transform="translate(18,11)" font-family="&quot;Source Sans Pro&quot;, sans-serif" font-size="14px" fill="#7F7F7F" opacity="1">test score</text></g></g><path class="foreground" aria-hidden="true" d="" pointer-events="none" display="none"/></g><g transform="translate(0,16)"><path class="background" aria-hidden="true" d="M0,0h114.875v14h-114.875Z" pointer-events="none" opacity="1"/><g><g class="mark-symbol role-legend-symbol" pointer-events="none"><path transform="translate(7,7)" d="M5,0A5,5,0,1,1,-5,0A5,5,0,1,1,5,0" fill="#f58518" stroke="#f58518" stroke-width="1.5" opacity="1"/></g><g class="mark-text role-legend-label" pointer-events="none"><text text-anchor="start" transform="translate(18,11)" font-family="&quot;Source Sans Pro&quot;, sans-serif" font-size="14px" fill="#7F7F7F" opacity="1">perceived ability</text></g></g><path class="foreground" aria-hidden="true" d="" pointer-events="none" display="none"/></g></g></g><path class="foreground" aria-hidden="true" d="" pointer-events="none" display="none"/></g></g></g><path class="foreground" aria-hidden="true" d="" pointer-events="none" display="none"/></g></g></g><path class="foreground" aria-hidden="true" d="" display="none"/></g></g></g></svg>