<svg xmlns="http://www.w3.org/2000/svg" xmlns:xlink="http://www.w3.org/1999/xlink" version="1.1" class="marks" width="480" height="320" viewBox="0 0 480 320"><g fill="none" stroke-miterlimit="10" transform="translate(48,7)"><g class="mark-group role-frame root" role="graphics-object" aria-roledescription="group mark container"><g transform="translate(0,0)"><path class="background" aria-hidden="true" d="M0,0h431v252h-431Z" stroke="false"/><g><g class="mark-group role-axis" role="graphics-symbol" aria-roledescription="axis" aria-label="X-axis titled 'test score percentile' for a linear scale with values from 0 to 100"><g transform="translate(0.5,252.5)"><path class="background" aria-hidden="true" d="M0,0h0v0h0Z" pointer-events="none"/><g><g class="mark-rule role-axis-tick" pointer-events="none"><line transform="translate(0,0)" x2="0" y2="5" stroke="#7F7F7F" stroke-width="1" opacity="1"/><line transform="translate(43,0)" x2="0" y2="5" stroke="#7F7F7F" stroke-width="1" opacity="1"/><line transform="translate(86,0)" x2="0" y2="5" stroke="#7F7F7F" stroke-width="1" opacity="1"/><line transform="translate(129,0)" x2="0" y2="5" stroke="#7F7F7F" stroke-width="1" opacity="1"/><line transform="translate(172,0)" x2="0" y2="5" stroke="#7F7F7F" stroke-width="1" opacity="1"/><line transform="translate(216,0)" x2="0" y2="5" stroke="#7F7F7F" stroke-width="1" opacity="1"/><line transform="translate(259,0)" x2="0" y2="5" stroke="#7F7F7F" stroke-width="1" opacity="1"/><line transform="translate(302,0)" x2="0" y2="5" stroke="#7F7F7F" stroke-width="1" opacity="1"/><line transform="translate(345,0)" x2="0" y2="5" stroke="#7F7F7F" stroke-width="1" opacity="1"/><line transform="translate(388,0)" x2="0" y2="5" stroke="#7F7F7F" stroke-width="1" opacity="1"/><line transform="translate(431,0)" x2="0" y2="5" stroke="#7F7F7F" stroke-width="1" opacity="1"/></g><g class="mark-text role-axis-label" pointer-events="none"><text text-anchor="start" transform="translate(0,18)" font-family="&quot;Source Sans Pro&quot;, sans-serif" font-size="14px" fill="#7F7F7F" opacity="1">0</text><text text-anchor="middle" transform="translate(43.1,18)" font-family="&quot;Source Sans Pro&quot;, sans-serif" font-size="14px" fill="#7F7F7F" opacity="1">10</text><text text-anchor="middle" transform="translate(86.2,18)" font-family="&quot;Source Sans Pro&quot;, sans-serif" font-size="14px" fill="#7F7F7F" opacity="1">20</text><text text-anchor="middle" transform="translate(129.29999999999998,18)" font-family="&quot;Source Sans Pro&quot;, sans-serif" font-size="14px" fill="#7F7F7F" opacity="1">30</text><text text-anchor="middle" transform="translate(172.4,18)" font-family="&quot;Source Sans Pro&quot;, sans-serif" font-size="14px" fill="#7F7F7F" opacity="1">40</text><text text-anchor="middle" transform="translate(215.5,18)" font-family="&quot;Source Sans Pro&quot;, sans-serif" font-size="14px" fill="#7F7F7F" opacity="1">50</text><text text-anchor="middle" transform="translate(258.59999999999997,18)" font-family="&quot;Source Sans Pro&quot;, sans-serif" font-size="14px" fill="#7F7F7F" opacity="1">60</text><text text-anchor="middle" transform="translate(301.7,18)" font-family="&quot;Source Sans Pro&quot;, sans-serif" font-size="14px" fill="#7F7F7F" opacity="1">70</text><text text-anchor="middle" transform="translate(344.8,18)" font-family="&quot;Source Sans Pro&quot;, sans-serif" font-size="14px" fill="#7F7F7F" opacity="1">80</text><text text-anchor="middle" transform="translate(387.90000000000003,18)" font-family="&quot;Source Sans Pro&quot;, sans-serif" font-size="14px" fill="#7F7F7F" opacity="1">90</text><text text-anchor="end" transform="translate(431,18)" font-family="&quot;Source Sans Pro&quot;, sans-serif" font-size="14px" fill="#7F7F7F" opacity="1">100</text></g><g class="mark-rule role-axis-domain" pointer-events="none"><line transform="translate(0,0)" x2="431" y2="0" stroke="#888" stroke-width="1" opacity="1"/></g><g class="mark-text role-axis-title" pointer-events="none"><text text-anchor="middle" transform="translate(215.5,38)" font-family="&quot;Source Sans Pro&quot;, sans-serif" font-size="16px" font-weight="normal" fill="#7F7F7F" opacity="1">test score percentile</text></g></g><path class="foreground" aria-hidden="true" d="" pointer-events="none" display="none"/></g></g><g class="mark-group role-axis" role="graphics-symbol" aria-roledescription="axis" aria-label="Y-axis titled 'perceived ability percentile' for a linear scale with values from 0 to 100"><g transform="translate(0.5,0.5)"><path class="background" aria-hidden="true" d="M0,0h0v0h0Z" pointer-events="none"/><g><g class="mark-rule role-axis-tick" pointer-events="none"><line transform="translate(0,252)" x2="-5" y2="0" stroke="#7F7F7F" stroke-width="1" opacity="1"/><line transform="translate(0,202)" x2="-5" y2="0" stroke="#7F7F7F" stroke-width="1" opacity="1"/><line transform="translate(0,151)" x2="-5" y2="0" stroke="#7F7F7F" stroke-width="1" opacity="1"/><line transform="translate(0,101)" x2="-5" y2="0" stroke="#7F7F7F" stroke-width="1" opacity="1"/><line transform="translate(0,50)" x2="-5" y2="0" stroke="#7F7F7F" stroke-width="1" opacity="1"/><line transform="translate(0,0)" x2="-5" y2="0" stroke="#7F7F7F" stroke-width="1" opacity="1"/></g><g class="mark-text role-axis-label" pointer-events="none"><text text-anchor="end" transform="translate(-7,256)" font-family="&quot;Source Sans Pro&quot;, sans-serif" font-size="14px" fill="#7F7F7F" opacity="1">0</text><text text-anchor="end" transform="translate(-7,205.60000000000002)" font-family="&quot;Source Sans Pro&quot;, sans-serif" font-size="14px" fill="#7F7F7F" opacity="1">20</text><text text-anchor="end" transform="translate(-7,155.2)" font-family="&quot;Source Sans Pro&quot;, sans-serif" font-size="14px" fill="#7F7F7F" opacity="1">40</text><text text-anchor="end" transform="translate(-7,104.80000000000001)" font-family="&quot;Source Sans Pro&quot;, sans-serif" font-size="14px" fill="#7F7F7F" opacity="1">60</text><text text-anchor="end" transform="translate(-7,54.39999999999999)" font-family="&quot;Source Sans Pro&quot;, sans-serif" font-size="14px" fill="#7F7F7F" opacity="1">80</text><text text-anchor="end" transform="translate(-7,4)" font-family="&quot;Source Sans Pro&quot;, sans-serif" font-size="14px" fill="#7F7F7F" opacity="1">100</text></g><g class="mark-rule role-axis-domain" pointer-events="none"><line transform="translate(0,252)" x2="0" y2="-252" stroke="#888" stroke-width="1" opacity="1"/></g><g class="mark-text role-axis-title" pointer-events="none"><text text-anchor="middle" transform="translate(-31.9375,126) rotate(-90) translate(0,-3)" font-family="&quot;Source Sans Pro&quot;, sans-serif" font-size="16px" font-weight="normal" fill="#7F7F7F" opacity="1">perceived ability percentile</text></g></g><path class="foreground" aria-hidden="true" d="" pointer-events="none" display="none"/></g></g><g class="mark-symbol role-mark marks" role="graphics-object" aria-roledescription="symbol mark container"><path aria-label="test score percentile: 62; perceived ability percentile: 48" role="graphics-symbol" aria-roledescription="point" transform="translate(267.21999999999997,131.04)" d="M2.739,0A2.739,2.739,0,1,1,-2.739,0A2.739,2.739,0,1,1,2.739,0" stroke="#4c78a8" stroke-width="2" opacity="0.7"/><path aria-label="test score percentile: 10; perceived ability percentile: 75" role="graphics-symbol" aria-roledescription="point" transform="translate(43.1,63)" d="M2.739,0A2.739,2.739,0,1,1,-2.739,0A2.739,2.739,0,1,1,2.739,0" stroke="#4c78a8" stroke-width="2" opacity="0.7"/><path aria-label="test score percentile: 86; perceived ability percentile: 57" role="graphics-symbol" aria-roledescription="point" transform="translate(370.65999999999997,108.36000000000001)" d="M2.739,0A2.739,2.739,0,1,1,-2.739,0A2.739,2.739,0,1,1,2.739,0" stroke="#4c78a8" stroke-width="2" opacity="0.7"/><path aria-label="test score percentile: 93; perceived ability percentile: 85" role="graphics-symbol" aria-roledescription="point" transform="translate(400.83000000000004,37.800000000000004)" d="M2.739,0A2.739,2.739,0,1,1,-2.739,0A2.739,2.739,0,1,1,2.739,0" stroke="#4c78a8" stroke-width="2" opacity="0.7"/><path aria-label="test score percentile: 0; perceived ability percentile: 4" role="graphics-symbol" aria-roledescription="point" transform="translate(0,241.92)" d="M2.739,0A2.739,2.739,0,1,1,-2.739,0A2.739,2.739,0,1,1,2.739,0" stroke="#4c78a8" stroke-width="2" opacity="0.7"/><path aria-label="test score percentile: 6; perceived ability percentile: 19" role="graphics-symbol" aria-roledescription="point" transform="translate(25.86,204.12)" d="M2.739,0A2.739,2.739,0,1,1,-2.739,0A2.739,2.739,0,1,1,2.739,0" stroke="#4c78a8" stroke-width="2" opacity="0.7"/><path aria-label="test score percentile: 54; perceived ability percentile: 22" role="graphics-symbol" aria-roledescription="point" transform="translate(232.74,196.56)" d="M2.739,0A2.739,2.739,0,1,1,-2.739,0A2.739,2.739,0,1,1,2.739,0" stroke="#4c78a8" stroke-width="2" opacity="0.7"/><path aria-label="test score percentile: 39; perceived ability percentile: 36" role="graphics-symbol" aria-roledescription="point" transform="translate(168.09,161.28)" d="M2.739,0A2.739,2.739,0,1,1,-2.739,0A2.739,2.739,0,1,1,2.739,0" stroke="#4c78a8" stroke-width="2" opacity="0.7"/><path aria-label="test score percentile: 49; perceived ability percentile: 77" role="graphics-symbol" aria-roledescription="point" transform="translate(211.19,57.959999999999994)" d="M2.739,0A2.739,2.739,0,1,1,-2.739,0A2.739,2.739,0,1,1,2.739,0" stroke="#4c78a8" stroke-width="2" opacity="0.7"/><path aria-label="test score percentile: 17; perceived ability percentile: 2" role="graphics-symbol" aria-roledescription="point" transform="translate(73.27000000000001,246.96)" d="M2.739,0A2.739,2.739,0,1,1,-2.739,0A2.739,2.739,0,1,1,2.739,0" stroke="#4c78a8" stroke-width="2" opacity="0.7"/><path aria-label="test score percentile: 92; perceived ability percentile: 82" role="graphics-symbol" aria-roledescription="point" transform="translate(396.52000000000004,45.360000000000014)" d="M2.739,0A2.739,2.739,0,1,1,-2.739,0A2.739,2.739,0,1,1,2.739,0" stroke="#4c78a8" stroke-width="2" opacity="0.7"/><path aria-label="test score percentile: 87; perceived ability percentile: 74" role="graphics-symbol" aria-roledescription="point" transform="translate(374.96999999999997,65.52)" d="M2.739,0A2.739,2.739,0,1,1,-2.739,0A2.739,2.739,0,1,1,2.739,0" stroke="#4c78a8" stroke-width="2" opacity="0.7"/><path aria-label="test score percentile: 51; perceived ability percentile: 34" role="graphics-symbol" aria-roledescription="point" transform="translate(219.81,166.32)" d="M2.739,0A2.739,2.739,0,1,1,-2.739,0A2.739,2.739,0,1,1,2.739,0" stroke="#4c78a8" stroke-width="2" opacity="0.7"/><path aria-label="test score percentile: 95; perceived ability percentile: 23" role="graphics-symbol" aria-roledescription="point" transform="translate(409.45,194.04)" d="M2.739,0A2.739,2.739,0,1,1,-2.739,0A2.739,2.739,0,1,1,2.739,0" stroke="#4c78a8" stroke-width="2" opacity="0.7"/><path aria-label="test score percentile: 70; perceived ability percentile: 68" role="graphics-symbol" aria-roledescription="point" transform="translate(301.7,80.63999999999999)" d="M2.739,0A2.739,2.739,0,1,1,-2.739,0A2.739,2.739,0,1,1,2.739,0" stroke="#4c78a8" stroke-width="2" opacity="0.7"/><path aria-label="test score percentile: 16; perceived ability percentile: 14" role="graphics-symbol" aria-roledescription="point" transform="translate(68.96000000000001,216.72)" d="M2.739,0A2.739,2.739,0,1,1,-2.739,0A2.739,2.739,0,1,1,2.739,0" stroke="#4c78a8" stroke-width="2" opacity="0.7"/><path aria-label="test score percentile: 64; perceived ability percentile: 71" role="graphics-symbol" aria-roledescription="point" transform="translate(275.84000000000003,73.08000000000001)" d="M2.739,0A2.739,2.739,0,1,1,-2.739,0A2.739,2.739,0,1,1,2.739,0" stroke="#4c78a8" stroke-width="2" opacity="0.7"/><path aria-label="test score percentile: 12; perceived ability percentile: 35" role="graphics-symbol" aria-roledescription="point" transform="translate(51.72,163.8)" d="M2.739,0A2.739,2.739,0,1,1,-2.739,0A2.739,2.739,0,1,1,2.739,0" stroke="#4c78a8" stroke-width="2" opacity="0.7"/><path aria-label="test score percentile: 91; perceived ability percentile: 97" role="graphics-symbol" aria-roledescription="point" transform="translate(392.21000000000004,7.560000000000007)" d="M2.739,0A2.739,2.739,0,1,1,-2.739,0A2.739,2.739,0,1,1,2.739,0" stroke="#4c78a8" stroke-width="2" opacity="0.7"/><path aria-label="test score percentile: 48; perceived ability percentile: 43" role="graphics-symbol" aria-roledescription="point" transform="translate(206.88,143.64000000000001)" d="M2.739,0A2.739,2.739,0,1,1,-2.739,0A2.739,2.739,0,1,1,2.739,0" stroke="#4c78a8" stroke-width="2" opacity="0.7"/><path aria-label="test score percentile: 43; perceived ability percentile: 11" role="graphics-symbol" aria-roledescription="point" transform="translate(185.32999999999998,224.28)" d="M2.739,0A2.739,2.739,0,1,1,-2.739,0A2.739,2.739,0,1,1,2.739,0" stroke="#4c78a8" stroke-width="2" opacity="0.7"/><path aria-label="test score percentile: 21; perceived ability percentile: 46" role="graphics-symbol" aria-roledescription="point" transform="translate(90.50999999999999,136.08)" d="M2.739,0A2.739,2.739,0,1,1,-2.739,0A2.739,2.739,0,1,1,2.739,0" stroke="#4c78a8" stroke-width="2" opacity="0.7"/><path aria-label="test score percentile: 97; perceived ability percentile: 81" role="graphics-symbol" aria-roledescription="point" transform="translate(418.07,47.87999999999999)" d="M2.739,0A2.739,2.739,0,1,1,-2.739,0A2.739,2.739,0,1,1,2.739,0" stroke="#4c78a8" stroke-width="2" opacity="0.7"/><path aria-label="test score percentile: 44; perceived ability percentile: 84" role="graphics-symbol" aria-roledescription="point" transform="translate(189.64000000000001,40.32000000000001)" d="M2.739,0A2.739,2.739,0,1,1,-2.739,0A2.739,2.739,0,1,1,2.739,0" stroke="#4c78a8" stroke-width="2" opacity="0.7"/><path aria-label="test score percentile: 29; perceived ability percentile: 73" role="graphics-symbol" aria-roledescription="point" transform="translate(124.99,68.04)" d="M2.739,0A2.739,2.739,0,1,1,-2.739,0A2.739,2.739,0,1,1,2.739,0" stroke="#4c78a8" stroke-width="2" opacity="0.7"/><path aria-label="test score percentile: 35; perceived ability percentile: 60" role="graphics-symbol" aria-roledescription="point" transform="translate(150.85,100.80000000000001)" d="M2.739,0A2.739,2.739,0,1,1,-2.739,0A2.739,2.739,0,1,1,2.739,0" stroke="#4c78a8" stroke-width="2" opacity="0.7"/><path aria-label="test score percentile: 74; perceived ability percentile: 92" role="graphics-symbol" aria-roledescription="point" transform="translate(318.94,20.15999999999999)" d="M2.739,0A2.739,2.739,0,1,1,-2.739,0A2.739,2.739,0,1,1,2.739,0" stroke="#4c78a8" stroke-width="2" opacity="0.7"/><path aria-label="test score percentile: 63; perceived ability percentile: 17" role="graphics-symbol" aria-roledescription="point" transform="translate(271.53000000000003,209.16)" d="M2.739,0A2.739,2.739,0,1,1,-2.739,0A2.739,2.739,0,1,1,2.739,0" stroke="#4c78a8" stroke-width="2" opacity="0.7"/><path aria-label="test score percentile: 66; perceived ability percentile: 39" role="graphics-symbol" aria-roledescription="point" transform="translate(284.46000000000004,153.72)" d="M2.739,0A2.739,2.739,0,1,1,-2.739,0A2.739,2.739,0,1,1,2.739,0" stroke="#4c78a8" stroke-width="2" opacity="0.7"/><path aria-label="test score percentile: 67; perceived ability percentile: 27" role="graphics-symbol" aria-roledescription="point" transform="translate(288.77000000000004,183.96)" d="M2.739,0A2.739,2.739,0,1,1,-2.739,0A2.739,2.739,0,1,1,2.739,0" stroke="#4c78a8" stroke-width="2" opacity="0.7"/><path aria-label="test score percentile: 99; perceived ability percentile: 79" role="graphics-symbol" aria-roledescription="point" transform="translate(426.69,52.91999999999999)" d="M2.739,0A2.739,2.739,0,1,1,-2.739,0A2.739,2.739,0,1,1,2.739,0" stroke="#4c78a8" stroke-width="2" opacity="0.7"/><path aria-label="test score percentile: 32; perceived ability percentile: 7" role="graphics-symbol" aria-roledescription="point" transform="translate(137.92000000000002,234.35999999999999)" d="M2.739,0A2.739,2.739,0,1,1,-2.739,0A2.739,2.739,0,1,1,2.739,0" stroke="#4c78a8" stroke-width="2" opacity="0.7"/><path aria-label="test score percentile: 25; perceived ability percentile: 67" role="graphics-symbol" aria-roledescription="point" transform="translate(107.75,83.16)" d="M2.739,0A2.739,2.739,0,1,1,-2.739,0A2.739,2.739,0,1,1,2.739,0" stroke="#4c78a8" stroke-width="2" opacity="0.7"/><path aria-label="test score percentile: 20; perceived ability percentile: 25" role="graphics-symbol" aria-roledescription="point" transform="translate(86.2,189)" d="M2.739,0A2.739,2.739,0,1,1,-2.739,0A2.739,2.739,0,1,1,2.739,0" stroke="#4c78a8" stroke-width="2" opacity="0.7"/><path aria-label="test score percentile: 77; perceived ability percentile: 12" role="graphics-symbol" aria-roledescription="point" transform="translate(331.87,221.76)" d="M2.739,0A2.739,2.739,0,1,1,-2.739,0A2.739,2.739,0,1,1,2.739,0" stroke="#4c78a8" stroke-width="2" opacity="0.7"/><path aria-label="test score percentile: 96; perceived ability percentile: 40" role="graphics-symbol" aria-roledescription="point" transform="translate(413.76,151.2)" d="M2.739,0A2.739,2.739,0,1,1,-2.739,0A2.739,2.739,0,1,1,2.739,0" stroke="#4c78a8" stroke-width="2" opacity="0.7"/><path aria-label="test score percentile: 45; perceived ability percentile: 64" role="graphics-symbol" aria-roledescription="point" transform="translate(193.95000000000002,90.72)" d="M2.739,0A2.739,2.739,0,1,1,-2.739,0A2.739,2.739,0,1,1,2.739,0" stroke="#4c78a8" stroke-width="2" opacity="0.7"/><path aria-label="test score percentile: 18; perceived ability percentile: 69" role="graphics-symbol" aria-roledescription="point" transform="translate(77.58,78.12000000000002)" d="M2.739,0A2.739,2.739,0,1,1,-2.739,0A2.739,2.739,0,1,1,2.739,0" stroke="#4c78a8" stroke-width="2" opacity="0.7"/><path aria-label="test score percentile: 19; perceived ability percentile: 90" role="graphics-symbol" aria-roledescription="point" transform="translate(81.89,25.199999999999996)" d="M2.739,0A2.739,2.739,0,1,1,-2.739,0A2.739,2.739,0,1,1,2.739,0" stroke="#4c78a8" stroke-width="2" opacity="0.7"/><path aria-label="test score percentile: 80; perceived ability percentile: 99" role="graphics-symbol" aria-roledescription="point" transform="translate(344.8,2.5200000000000022)" d="M2.739,0A2.739,2.739,0,1,1,-2.739,0A2.739,2.739,0,1,1,2.739,0" stroke="#4c78a8" stroke-width="2" opacity="0.7"/><path aria-label="test score percentile: 85; perceived ability percentile: 78" role="graphics-symbol" aria-roledescription="point" transform="translate(366.34999999999997,55.43999999999999)" d="M2.739,0A2.739,2.739,0,1,1,-2.739,0A2.739,2.739,0,1,1,2.739,0" stroke="#4c78a8" stroke-width="2" opacity="0.7"/><path aria-label="test score percentile: 75; perceived ability percentile: 28" role="graphics-symbol" aria-roledescription="point" transform="translate(323.25,181.44)" d="M2.739,0A2.739,2.739,0,1,1,-2.739,0A2.739,2.739,0,1,1,2.739,0" stroke="#4c78a8" stroke-width="2" opacity="0.7"/><path aria-label="test score percentile: 22; perceived ability percentile: 0" role="graphics-symbol" aria-roledescription="point" transform="translate(94.82000000000001,252)" d="M2.739,0A2.739,2.739,0,1,1,-2.739,0A2.739,2.739,0,1,1,2.739,0" stroke="#4c78a8" stroke-width="2" opacity="0.7"/><path aria-label="test score percentile: 60; perceived ability percentile: 70" role="graphics-symbol" aria-roledescription="point" transform="translate(258.59999999999997,75.60000000000001)" d="M2.739,0A2.739,2.739,0,1,1,-2.739,0A2.739,2.739,0,1,1,2.739,0" stroke="#4c78a8" stroke-width="2" opacity="0.7"/><path aria-label="test score percentile: 53; perceived ability percentile: 24" role="graphics-symbol" aria-roledescription="point" transform="translate(228.43,191.52)" d="M2.739,0A2.739,2.739,0,1,1,-2.739,0A2.739,2.739,0,1,1,2.739,0" stroke="#4c78a8" stroke-width="2" opacity="0.7"/><path aria-label="test score percentile: 58; perceived ability percentile: 42" role="graphics-symbol" aria-roledescription="point" transform="translate(249.98,146.16000000000003)" d="M2.739,0A2.739,2.739,0,1,1,-2.739,0A2.739,2.739,0,1,1,2.739,0" stroke="#4c78a8" stroke-width="2" opacity="0.7"/><path aria-label="test score percentile: 90; perceived ability percentile: 52" role="graphics-symbol" aria-roledescription="point" transform="translate(387.90000000000003,120.96)" d="M2.739,0A2.739,2.739,0,1,1,-2.739,0A2.739,2.739,0,1,1,2.739,0" stroke="#4c78a8" stroke-width="2" opacity="0.7"/><path aria-label="test score percentile: 59; perceived ability percentile: 55" role="graphics-symbol" aria-roledescription="point" transform="translate(254.29,113.39999999999999)" d="M2.739,0A2.739,2.739,0,1,1,-2.739,0A2.739,2.739,0,1,1,2.739,0" stroke="#4c78a8" stroke-width="2" opacity="0.7"/><path aria-label="test score percentile: 82; perceived ability percentile: 89" role="graphics-symbol" aria-roledescription="point" transform="translate(353.41999999999996,27.719999999999995)" d="M2.739,0A2.739,2.739,0,1,1,-2.739,0A2.739,2.739,0,1,1,2.739,0" stroke="#4c78a8" stroke-width="2" opacity="0.7"/><path aria-label="test score percentile: 52; perceived ability percentile: 61" role="graphics-symbol" aria-roledescription="point" transform="translate(224.12,98.28)" d="M2.739,0A2.739,2.739,0,1,1,-2.739,0A2.739,2.739,0,1,1,2.739,0" stroke="#4c78a8" stroke-width="2" opacity="0.7"/><path aria-label="test score percentile: 61; perceived ability percentile: 56" role="graphics-symbol" aria-roledescription="point" transform="translate(262.90999999999997,110.87999999999998)" d="M2.739,0A2.739,2.739,0,1,1,-2.739,0A2.739,2.739,0,1,1,2.739,0" stroke="#4c78a8" stroke-width="2" opacity="0.7"/><path aria-label="test score percentile: 79; perceived ability percentile: 29" role="graphics-symbol" aria-roledescription="point" transform="translate(340.49,178.92)" d="M2.739,0A2.739,2.739,0,1,1,-2.739,0A2.739,2.739,0,1,1,2.739,0" stroke="#4c78a8" stroke-width="2" opacity="0.7"/><path aria-label="test score percentile: 3; perceived ability percentile: 1" role="graphics-symbol" aria-roledescription="point" transform="translate(12.93,249.48)" d="M2.739,0A2.739,2.739,0,1,1,-2.739,0A2.739,2.739,0,1,1,2.739,0" stroke="#4c78a8" stroke-width="2" opacity="0.7"/><path aria-label="test score percentile: 38; perceived ability percentile: 30" role="graphics-symbol" aria-roledescription="point" transform="translate(163.78,176.39999999999998)" d="M2.739,0A2.739,2.739,0,1,1,-2.739,0A2.739,2.739,0,1,1,2.739,0" stroke="#4c78a8" stroke-width="2" opacity="0.7"/><path aria-label="test score percentile: 26; perceived ability percentile: 41" role="graphics-symbol" aria-roledescription="point" transform="translate(112.06,148.68)" d="M2.739,0A2.739,2.739,0,1,1,-2.739,0A2.739,2.739,0,1,1,2.739,0" stroke="#4c78a8" stroke-width="2" opacity="0.7"/><path aria-label="test score percentile: 24; perceived ability percentile: 87" role="graphics-symbol" aria-roledescription="point" transform="translate(103.44,32.76)" d="M2.739,0A2.739,2.739,0,1,1,-2.739,0A2.739,2.739,0,1,1,2.739,0" stroke="#4c78a8" stroke-width="2" opacity="0.7"/><path aria-label="test score percentile: 41; perceived ability percentile: 54" role="graphics-symbol" aria-roledescription="point" transform="translate(176.70999999999998,115.91999999999999)" d="M2.739,0A2.739,2.739,0,1,1,-2.739,0A2.739,2.739,0,1,1,2.739,0" stroke="#4c78a8" stroke-width="2" opacity="0.7"/><path aria-label="test score percentile: 98; perceived ability percentile: 94" role="graphics-symbol" aria-roledescription="point" transform="translate(422.38,15.120000000000013)" d="M2.739,0A2.739,2.739,0,1,1,-2.739,0A2.739,2.739,0,1,1,2.739,0" stroke="#4c78a8" stroke-width="2" opacity="0.7"/><path aria-label="test score percentile: 15; perceived ability percentile: 15" role="graphics-symbol" aria-roledescription="point" transform="translate(64.64999999999999,214.2)" d="M2.739,0A2.739,2.739,0,1,1,-2.739,0A2.739,2.739,0,1,1,2.739,0" stroke="#4c78a8" stroke-width="2" opacity="0.7"/><path aria-label="test score percentile: 94; perceived ability percentile: 32" role="graphics-symbol" aria-roledescription="point" transform="translate(405.14,171.35999999999999)" d="M2.739,0A2.739,2.739,0,1,1,-2.739,0A2.739,2.739,0,1,1,2.739,0" stroke="#4c78a8" stroke-width="2" opacity="0.7"/><path aria-label="test score percentile: 2; perceived ability percentile: 5" role="graphics-symbol" aria-roledescription="point" transform="translate(8.620000000000001,239.39999999999998)" d="M2.739,0A2.739,2.739,0,1,1,-2.739,0A2.739,2.739,0,1,1,2.739,0" stroke="#4c78a8" stroke-width="2" opacity="0.7"/><path aria-label="test score percentile: 37; perceived ability percentile: 21" role="graphics-symbol" aria-roledescription="point" transform="translate(159.47,199.08)" d="M2.739,0A2.739,2.739,0,1,1,-2.739,0A2.739,2.739,0,1,1,2.739,0" stroke="#4c78a8" stroke-width="2" opacity="0.7"/><path aria-label="test score percentile: 57; perceived ability percentile: 98" role="graphics-symbol" aria-roledescription="point" transform="translate(245.67,5.0400000000000045)" d="M2.739,0A2.739,2.739,0,1,1,-2.739,0A2.739,2.739,0,1,1,2.739,0" stroke="#4c78a8" stroke-width="2" opacity="0.7"/><path aria-label="test score percentile: 76; perceived ability percentile: 37" role="graphics-symbol" aria-roledescription="point" transform="translate(327.56,158.76)" d="M2.739,0A2.739,2.739,0,1,1,-2.739,0A2.739,2.739,0,1,1,2.739,0" stroke="#4c78a8" stroke-width="2" opacity="0.7"/><path aria-label="test score percentile: 84; perceived ability percentile: 83" role="graphics-symbol" aria-roledescription="point" transform="translate(362.03999999999996,42.84000000000001)" d="M2.739,0A2.739,2.739,0,1,1,-2.739,0A2.739,2.739,0,1,1,2.739,0" stroke="#4c78a8" stroke-width="2" opacity="0.7"/><path aria-label="test score percentile: 88; perceived ability percentile: 38" role="graphics-symbol" aria-roledescription="point" transform="translate(379.28000000000003,156.24)" d="M2.739,0A2.739,2.739,0,1,1,-2.739,0A2.739,2.739,0,1,1,2.739,0" stroke="#4c78a8" stroke-width="2" opacity="0.7"/><path aria-label="test score percentile: 36; perceived ability percentile: 76" role="graphics-symbol" aria-roledescription="point" transform="translate(155.16,60.48)" d="M2.739,0A2.739,2.739,0,1,1,-2.739,0A2.739,2.739,0,1,1,2.739,0" stroke="#4c78a8" stroke-width="2" opacity="0.7"/><path aria-label="test score percentile: 28; perceived ability percentile: 59" role="graphics-symbol" aria-roledescription="point" transform="translate(120.68,103.32000000000001)" d="M2.739,0A2.739,2.739,0,1,1,-2.739,0A2.739,2.739,0,1,1,2.739,0" stroke="#4c78a8" stroke-width="2" opacity="0.7"/><path aria-label="test score percentile: 89; perceived ability percentile: 66" role="graphics-symbol" aria-roledescription="point" transform="translate(383.59000000000003,85.67999999999999)" d="M2.739,0A2.739,2.739,0,1,1,-2.739,0A2.739,2.739,0,1,1,2.739,0" stroke="#4c78a8" stroke-width="2" opacity="0.7"/><path aria-label="test score percentile: 42; perceived ability percentile: 50" role="graphics-symbol" aria-roledescription="point" transform="translate(181.01999999999998,126)" d="M2.739,0A2.739,2.739,0,1,1,-2.739,0A2.739,2.739,0,1,1,2.739,0" stroke="#4c78a8" stroke-width="2" opacity="0.7"/><path aria-label="test score percentile: 7; perceived ability percentile: 8" role="graphics-symbol" aria-roledescription="point" transform="translate(30.17,231.84)" d="M2.739,0A2.739,2.739,0,1,1,-2.739,0A2.739,2.739,0,1,1,2.739,0" stroke="#4c78a8" stroke-width="2" opacity="0.7"/><path aria-label="test score percentile: 9; perceived ability percentile: 47" role="graphics-symbol" aria-roledescription="point" transform="translate(38.79,133.56)" d="M2.739,0A2.739,2.739,0,1,1,-2.739,0A2.739,2.739,0,1,1,2.739,0" stroke="#4c78a8" stroke-width="2" opacity="0.7"/><path aria-label="test score percentile: 13; perceived ability percentile: 16" role="graphics-symbol" aria-roledescription="point" transform="translate(56.03,211.67999999999998)" d="M2.739,0A2.739,2.739,0,1,1,-2.739,0A2.739,2.739,0,1,1,2.739,0" stroke="#4c78a8" stroke-width="2" opacity="0.7"/><path aria-label="test score percentile: 73; perceived ability percentile: 20" role="graphics-symbol" aria-roledescription="point" transform="translate(314.63,201.60000000000002)" d="M2.739,0A2.739,2.739,0,1,1,-2.739,0A2.739,2.739,0,1,1,2.739,0" stroke="#4c78a8" stroke-width="2" opacity="0.7"/><path aria-label="test score percentile: 55; perceived ability percentile: 10" role="graphics-symbol" aria-roledescription="point" transform="translate(237.05,226.8)" d="M2.739,0A2.739,2.739,0,1,1,-2.739,0A2.739,2.739,0,1,1,2.739,0" stroke="#4c78a8" stroke-width="2" opacity="0.7"/><path aria-label="test score percentile: 83; perceived ability percentile: 72" role="graphics-symbol" aria-roledescription="point" transform="translate(357.72999999999996,70.56)" d="M2.739,0A2.739,2.739,0,1,1,-2.739,0A2.739,2.739,0,1,1,2.739,0" stroke="#4c78a8" stroke-width="2" opacity="0.7"/><path aria-label="test score percentile: 30; perceived ability percentile: 86" role="graphics-symbol" aria-roledescription="point" transform="translate(129.29999999999998,35.28)" d="M2.739,0A2.739,2.739,0,1,1,-2.739,0A2.739,2.739,0,1,1,2.739,0" stroke="#4c78a8" stroke-width="2" opacity="0.7"/><path aria-label="test score percentile: 56; perceived ability percentile: 65" role="graphics-symbol" aria-roledescription="point" transform="translate(241.36,88.19999999999999)" d="M2.739,0A2.739,2.739,0,1,1,-2.739,0A2.739,2.739,0,1,1,2.739,0" stroke="#4c78a8" stroke-width="2" opacity="0.7"/><path aria-label="test score percentile: 78; perceived ability percentile: 63" role="graphics-symbol" aria-roledescription="point" transform="translate(336.18,93.24)" d="M2.739,0A2.739,2.739,0,1,1,-2.739,0A2.739,2.739,0,1,1,2.739,0" stroke="#4c78a8" stroke-width="2" opacity="0.7"/><path aria-label="test score percentile: 40; perceived ability percentile: 58" role="graphics-symbol" aria-roledescription="point" transform="translate(172.4,105.84)" d="M2.739,0A2.739,2.739,0,1,1,-2.739,0A2.739,2.739,0,1,1,2.739,0" stroke="#4c78a8" stroke-width="2" opacity="0.7"/><path aria-label="test score percentile: 69; perceived ability percentile: 91" role="graphics-symbol" aria-roledescription="point" transform="translate(297.39,22.679999999999993)" d="M2.739,0A2.739,2.739,0,1,1,-2.739,0A2.739,2.739,0,1,1,2.739,0" stroke="#4c78a8" stroke-width="2" opacity="0.7"/><path aria-label="test score percentile: 23; perceived ability percentile: 49" role="graphics-symbol" aria-roledescription="point" transform="translate(99.13000000000001,128.52)" d="M2.739,0A2.739,2.739,0,1,1,-2.739,0A2.739,2.739,0,1,1,2.739,0" stroke="#4c78a8" stroke-width="2" opacity="0.7"/><path aria-label="test score percentile: 34; perceived ability percentile: 33" role="graphics-symbol" aria-roledescription="point" transform="translate(146.54000000000002,168.83999999999997)" d="M2.739,0A2.739,2.739,0,1,1,-2.739,0A2.739,2.739,0,1,1,2.739,0" stroke="#4c78a8" stroke-width="2" opacity="0.7"/><path aria-label="test score percentile: 33; perceived ability percentile: 80" role="graphics-symbol" aria-roledescription="point" transform="translate(142.23000000000002,50.39999999999999)" d="M2.739,0A2.739,2.739,0,1,1,-2.739,0A2.739,2.739,0,1,1,2.739,0" stroke="#4c78a8" stroke-width="2" opacity="0.7"/><path aria-label="test score percentile: 8; perceived ability percentile: 44" role="graphics-symbol" aria-roledescription="point" transform="translate(34.480000000000004,141.12)" d="M2.739,0A2.739,2.739,0,1,1,-2.739,0A2.739,2.739,0,1,1,2.739,0" stroke="#4c78a8" stroke-width="2" opacity="0.7"/><path aria-label="test score percentile: 72; perceived ability percentile: 93" role="graphics-symbol" aria-roledescription="point" transform="translate(310.32,17.639999999999986)" d="M2.739,0A2.739,2.739,0,1,1,-2.739,0A2.739,2.739,0,1,1,2.739,0" stroke="#4c78a8" stroke-width="2" opacity="0.7"/><path aria-label="test score percentile: 27; perceived ability percentile: 53" role="graphics-symbol" aria-roledescription="point" transform="translate(116.37,118.44)" d="M2.739,0A2.739,2.739,0,1,1,-2.739,0A2.739,2.739,0,1,1,2.739,0" stroke="#4c78a8" stroke-width="2" opacity="0.7"/><path aria-label="test score percentile: 50; perceived ability percentile: 9" role="graphics-symbol" aria-roledescription="point" transform="translate(215.5,229.32000000000002)" d="M2.739,0A2.739,2.739,0,1,1,-2.739,0A2.739,2.739,0,1,1,2.739,0" stroke="#4c78a8" stroke-width="2" opacity="0.7"/><path aria-label="test score percentile: 71; perceived ability percentile: 13" role="graphics-symbol" aria-roledescription="point" transform="translate(306.01,219.24)" d="M2.739,0A2.739,2.739,0,1,1,-2.739,0A2.739,2.739,0,1,1,2.739,0" stroke="#4c78a8" stroke-width="2" opacity="0.7"/><path aria-label="test score percentile: 68; perceived ability percentile: 95" role="graphics-symbol" aria-roledescription="point" transform="translate(293.08000000000004,12.600000000000012)" d="M2.739,0A2.739,2.739,0,1,1,-2.739,0A2.739,2.739,0,1,1,2.739,0" stroke="#4c78a8" stroke-width="2" opacity="0.7"/><path aria-label="test score percentile: 81; perceived ability percentile: 96" role="graphics-symbol" aria-roledescription="point" transform="translate(349.11,10.080000000000009)" d="M2.739,0A2.739,2.739,0,1,1,-2.739,0A2.739,2.739,0,1,1,2.739,0" stroke="#4c78a8" stroke-width="2" opacity="0.7"/><path aria-label="test score percentile: 46; perceived ability percentile: 45" role="graphics-symbol" aria-roledescription="point" transform="translate(198.26000000000002,138.60000000000002)" d="M2.739,0A2.739,2.739,0,1,1,-2.739,0A2.739,2.739,0,1,1,2.739,0" stroke="#4c78a8" stroke-width="2" opacity="0.7"/><path aria-label="test score percentile: 31; perceived ability percentile: 31" role="graphics-symbol" aria-roledescription="point" transform="translate(133.60999999999999,173.88)" d="M2.739,0A2.739,2.739,0,1,1,-2.739,0A2.739,2.739,0,1,1,2.739,0" stroke="#4c78a8" stroke-width="2" opacity="0.7"/><path aria-label="test score percentile: 47; perceived ability percentile: 88" role="graphics-symbol" aria-roledescription="point" transform="translate(202.57,30.24)" d="M2.739,0A2.739,2.739,0,1,1,-2.739,0A2.739,2.739,0,1,1,2.739,0" stroke="#4c78a8" stroke-width="2" opacity="0.7"/><path aria-label="test score percentile: 1; perceived ability percentile: 3" role="graphics-symbol" aria-roledescription="point" transform="translate(4.3100000000000005,244.44)" d="M2.739,0A2.739,2.739,0,1,1,-2.739,0A2.739,2.739,0,1,1,2.739,0" stroke="#4c78a8" stroke-width="2" opacity="0.7"/><path aria-label="test score percentile: 4; perceived ability percentile: 6" role="graphics-symbol" aria-roledescription="point" transform="translate(17.240000000000002,236.88)" d="M2.739,0A2.739,2.739,0,1,1,-2.739,0A2.739,2.739,0,1,1,2.739,0" stroke="#4c78a8" stroke-width="2" opacity="0.7"/><path aria-label="test score percentile: 5; perceived ability percentile: 51" role="graphics-symbol" aria-roledescription="point" transform="translate(21.55,123.48)" d="M2.739,0A2.739,2.739,0,1,1,-2.739,0A2.739,2.739,0,1,1,2.739,0" stroke="#4c78a8" stroke-width="2" opacity="0.7"/><path aria-label="test score percentile: 11; perceived ability percentile: 18" role="graphics-symbol" aria-roledescription="point" transform="translate(47.410000000000004,206.64000000000001)" d="M2.739,0A2.739,2.739,0,1,1,-2.739,0A2.739,2.739,0,1,1,2.739,0" stroke="#4c78a8" stroke-width="2" opacity="0.7"/><path aria-label="test score percentile: 65; perceived ability percentile: 62" role="graphics-symbol" aria-roledescription="point" transform="translate(280.15000000000003,95.76)" d="M2.739,0A2.739,2.739,0,1,1,-2.739,0A2.739,2.739,0,1,1,2.739,0" stroke="#4c78a8" stroke-width="2" opacity="0.7"/><path aria-label="test score percentile: 14; perceived ability percentile: 26" role="graphics-symbol" aria-roledescription="point" transform="translate(60.34,186.48)" d="M2.739,0A2.739,2.739,0,1,1,-2.739,0A2.739,2.739,0,1,1,2.739,0" stroke="#4c78a8" stroke-width="2" opacity="0.7"/></g></g><path class="foreground" aria-hidden="true" d="" display="none"/></g></g></g></svg>